HIERARCHY
ROOT Hips
{
	OFFSET 56.994900 -9.107426 92.817200
	CHANNELS 6 Xposition Yposition Zposition Xrotation Yrotation Zrotation
	JOINT spine
	{
		OFFSET 0.000000 -0.448574 7.800591
		CHANNELS 3 Xrotation Yrotation Zrotation
		JOINT spine1
		{
			OFFSET 0.000000 -0.000002 10.136398
			CHANNELS 3 Xrotation Yrotation Zrotation
			JOINT spine2
			{
				OFFSET 0.000000 -0.000002 9.712509
				CHANNELS 3 Xrotation Yrotation Zrotation
				JOINT Neck
				{
					OFFSET 0.000000 -1.188874 24.936104
					CHANNELS 3 Xrotation Yrotation Zrotation
					JOINT Head
					{
						OFFSET 0.000000 -0.000001 7.533844
						CHANNELS 3 Xrotation Yrotation Zrotation
						End Site
						{
							OFFSET 0.000000 6.014017 18.236099
						}
					}
				}
				JOINT RightShoulder
				{
					OFFSET -4.089649 0.569456 10.488808
					CHANNELS 3 Xrotation Yrotation Zrotation
					JOINT RightArm
					{
						OFFSET 0.000000 -0.000003 13.757004
						CHANNELS 3 Xrotation Yrotation Zrotation
						JOINT RightArmRoll
						{
							OFFSET 0.000000 -0.000001 6.944778
							CHANNELS 3 Xrotation Yrotation Zrotation
							JOINT RightForeArm
							{
								OFFSET 0.000000 -0.000003 20.227692
								CHANNELS 3 Xrotation Yrotation Zrotation
								JOINT RightForeArmRoll
								{
									OFFSET 0.000000 -0.000002 7.793121
									CHANNELS 3 Xrotation Yrotation Zrotation
									JOINT RightHand
									{
										OFFSET 0.000000 -0.000002 15.639099
										CHANNELS 3 Xrotation Yrotation Zrotation
										End Site
										{
											OFFSET 0.000000 0.000000 0.100006
										}
									}
								}
							}
						}
					}
				}
				JOINT LeftShoulder
				{
					OFFSET 4.089649 0.569456 10.488808
					CHANNELS 3 Xrotation Yrotation Zrotation
					JOINT LeftArm
					{
						OFFSET 0.000000 -0.000003 13.757004
						CHANNELS 3 Xrotation Yrotation Zrotation
						JOINT LeftArmRoll
						{
							OFFSET 0.000000 -0.000001 6.944778
							CHANNELS 3 Xrotation Yrotation Zrotation
							JOINT LeftForeArm
							{
								OFFSET 0.000000 -0.000003 20.227692
								CHANNELS 3 Xrotation Yrotation Zrotation
								JOINT LeftForeArmRoll
								{
									OFFSET 0.000000 -0.000002 7.793121
									CHANNELS 3 Xrotation Yrotation Zrotation
									JOINT LeftHand
									{
										OFFSET 0.000000 -0.000002 15.639099
										CHANNELS 3 Xrotation Yrotation Zrotation
										End Site
										{
											OFFSET 0.000000 0.000000 0.100006
										}
									}
								}
							}
						}
					}
				}
			}
		}
	}
	JOINT RightUpLeg
	{
		OFFSET -6.914158 1.063580 -1.267883
		CHANNELS 3 Xrotation Yrotation Zrotation
		JOINT RightUpLegRoll
		{
			OFFSET 0.000000 -0.000003 18.337799
			CHANNELS 3 Xrotation Yrotation Zrotation
			JOINT RightLeg
			{
				OFFSET 0.000000 0.000004 -22.708496
				CHANNELS 3 Xrotation Yrotation Zrotation
				JOINT RightLegRoll
				{
					OFFSET 0.000000 -0.000004 22.782799
					CHANNELS 3 Xrotation Yrotation Zrotation
					JOINT RightFoot
					{
						OFFSET 0.000000 -0.000003 18.962898
						CHANNELS 3 Xrotation Yrotation Zrotation
						JOINT RightToeBase
						{
							OFFSET 0.000000 -0.000003 15.852005
							CHANNELS 3 Xrotation Yrotation Zrotation
							End Site
							{
								OFFSET 0.006718 0.884892 7.677017
							}
						}
					}
				}
			}
		}
	}
	JOINT LeftUpLeg
	{
		OFFSET 6.914158 1.063580 -1.267883
		CHANNELS 3 Xrotation Yrotation Zrotation
		JOINT LeftUpLegRoll
		{
			OFFSET 0.000000 -0.000003 18.337898
			CHANNELS 3 Xrotation Yrotation Zrotation
			JOINT LeftLeg
			{
				OFFSET 0.000000 -0.000004 22.708397
				CHANNELS 3 Xrotation Yrotation Zrotation
				JOINT LeftLegRoll
				{
					OFFSET 0.000000 -0.000004 22.993408
					CHANNELS 3 Xrotation Yrotation Zrotation
					JOINT LeftFoot
					{
						OFFSET 0.000000 -0.000003 18.752197
						CHANNELS 3 Xrotation Yrotation Zrotation
						JOINT LeftToeBase
						{
							OFFSET 0.000000 -0.000002 15.852005
							CHANNELS 3 Xrotation Yrotation Zrotation
							End Site
							{
								OFFSET -0.030113 0.884891 7.677017
							}
						}
					}
				}
			}
		}
	}
}
MOTION
Frames: 8
Frame Time: 0.041667
58.782604 -4.840275 92.175003 -6.951564 -0.311766 -3.648442 -0.042552 0.198100 -0.045432 3.911363 0.395367 -0.083189 5.556462 0.394337 -0.087915 14.409298 10.008134 -1.847119 -13.707283 -14.699810 -2.424723 -15.014400 -71.174362 -18.032524 -25.719610 -101.525585 -0.910601 -0.000001 -0.000000 0.000007 18.689797 -4.892033 -0.604882 0.000006 -0.000005 -3.000001 -5.000268 -7.999448 0.000091 -5.705029 69.385617 7.607631 28.082540 101.261659 -45.032100 0.000001 -0.000005 -0.000002 19.642241 5.664809 0.342567 0.000006 -0.000020 3.000021 -5.000298 7.999340 -0.000101 -15.243174 -176.389294 -4.042941 -179.999991 0.000005 -0.629001 171.475137 2.247913 -0.432146 -0.000002 0.000001 0.473664 68.736743 5.030242 6.924444 25.456959 -7.355616 0.000001 -0.163990 -174.007033 8.080948 -0.000005 -0.000004 -2.275721 -22.117508 6.648518 1.291705 -0.000008 0.000005 -0.468142 79.934981 -8.794165 5.664570 25.464832 7.355619 -0.002835 
58.802105 -4.846524 92.179497 -6.965185 -0.314231 -3.642209 -0.041217 0.198699 -0.045490 3.913334 0.396184 -0.084649 5.558422 0.395130 -0.089382 14.457120 10.000302 -1.846161 -13.717367 -14.679313 -2.419783 -14.981345 -71.157020 -17.995586 -25.838741 -101.625053 -1.344732 -0.000001 0.000001 0.000005 18.903044 -5.039988 -0.577845 0.000005 -0.000005 -3.000004 -5.000266 -7.999449 0.000090 -5.636620 69.404523 7.533016 27.375986 101.224244 -44.149574 -0.000000 -0.000004 -0.000001 19.793161 5.726135 0.331663 0.000006 -0.000020 3.000019 -5.000299 7.999340 -0.000100 -15.231400 -176.380415 -4.031131 -179.999991 0.000005 -0.629001 171.481297 2.237074 -0.432007 -0.000002 0.000001 0.471795 68.730862 5.035604 6.910820 25.456957 -7.355615 0.000001 -0.164101 -174.010025 8.070085 -0.000006 -0.000003 -2.275749 -22.126954 6.660693 1.293632 -0.000004 0.000006 -0.466151 79.930903 -8.794077 5.660761 25.464832 7.355619 -0.002835 
58.802902 -4.833285 92.177094 -6.978857 -0.316704 -3.635888 -0.039836 0.199322 -0.045543 3.915324 0.397046 -0.086187 5.560424 0.395967 -0.090925 14.504936 9.992371 -1.845223 -13.727218 -14.658438 -2.414774 -14.948615 -71.140163 -17.958994 -25.963719 -101.725320 -1.784545 -0.000000 -0.000000 0.000008 19.114846 -5.188485 -0.549444 0.000007 -0.000004 -3.000001 -5.000268 -7.999449 0.000088 -5.567754 69.423299 7.457893 26.658636 101.190045 -43.257197 0.000001 -0.000005 -0.000004 19.943142 5.787513 0.320327 0.000006 -0.000020 3.000019 -5.000299 7.999340 -0.000101 -15.219429 -176.371522 -4.018853 -179.999991 0.000005 -0.629998 171.487622 2.225235 -0.432036 -0.000001 0.000002 0.469946 68.724858 5.040917 6.897395 25.456957 -7.355617 0.000001 -0.164319 -174.012033 8.059047 -0.000006 -0.000003 -2.275790 -22.136407 6.673050 1.295560 -0.000004 0.000005 -0.464133 79.926812 -8.793993 5.656951 25.464830 7.355617 -0.002835 
58.808704 -4.828665 92.179001 -6.992589 -0.319183 -3.629519 -0.038421 0.199961 -0.045592 3.917345 0.397939 -0.087778 5.562434 0.396835 -0.092523 14.552749 9.984335 -1.844289 -13.736847 -14.637382 -2.409737 -14.916119 -71.123702 -17.922678 -26.088077 -101.827971 -2.223541 -0.000001 0.000000 0.000008 19.325699 -5.337307 -0.519752 0.000004 -0.000006 -3.000003 -5.000268 -7.999449 0.000089 -5.498573 69.442069 7.382419 25.932811 101.158387 -42.356902 0.000000 -0.000004 -0.000004 20.092576 5.848937 0.308569 0.000005 -0.000019 3.000020 -5.000298 7.999341 -0.000101 -15.207362 -176.362615 -4.006255 -179.999991 0.000005 -0.629998 171.494070 2.212424 -0.432198 -0.000002 0.000001 0.468111 68.719059 5.046226 6.883956 25.456959 -7.355616 0.000001 -0.164609 -174.015024 8.047886 -0.000005 -0.000004 -2.275841 -22.146076 6.685518 1.297507 -0.000003 0.000004 -0.462094 79.922721 -8.793881 5.652942 25.464830 7.355617 -0.002835 
58.815804 -4.821094 92.182701 -7.006340 -0.321667 -3.623111 -0.036981 0.200610 -0.045639 3.919366 0.398850 -0.089400 5.564465 0.397719 -0.094152 14.600554 9.976202 -1.843337 -13.746372 -14.616245 -2.404672 -14.883662 -71.107330 -17.886413 -26.211664 -101.931899 -2.661552 -0.000001 0.000001 0.000009 19.536108 -5.486262 -0.488850 0.000004 -0.000005 -2.999997 -5.000268 -7.999449 0.000090 -5.429104 69.460708 7.306627 25.197014 101.130165 -41.447050 -0.000000 -0.000005 -0.000003 20.241774 5.910356 0.296440 0.000007 -0.000019 3.000019 -5.000297 7.999341 -0.000100 -15.195083 -176.353722 -3.993452 -179.999991 0.000005 -0.630995 171.500545 2.199599 -0.432375 -0.000002 0.000001 0.466284 68.713165 5.051520 6.870624 25.456960 -7.355617 0.000001 -0.164938 -174.018030 8.036651 -0.000005 -0.000004 -2.275890 -22.155747 6.698058 1.299454 -0.000005 0.000004 -0.460045 79.918616 -8.793774 5.648934 25.464832 7.355619 -0.002834 
58.816105 -4.806593 92.179298 -7.020101 -0.324156 -3.616686 -0.035536 0.201261 -0.045687 3.921406 0.399765 -0.091031 5.566495 0.398607 -0.095789 14.648256 9.968069 -1.842357 -13.755788 -14.595107 -2.399594 -14.851372 -71.091054 -17.850315 -26.334353 -102.035984 -3.098636 -0.000001 0.000000 0.000006 19.746567 -5.635123 -0.456834 0.000005 -0.000006 -3.000000 -5.000267 -7.999449 0.000091 -5.359533 69.479416 7.230730 24.456042 101.103622 -40.532340 0.000000 -0.000004 -0.000003 20.390840 5.971769 0.283990 0.000006 -0.000020 3.000021 -5.000298 7.999340 -0.000100 -15.182810 -176.344829 -3.980600 -179.999991 0.000005 -0.630995 171.507047 2.186774 -0.432549 -0.000002 0.000002 0.464459 68.707359 5.056832 6.857289 25.456957 -7.355614 0.000001 -0.165276 -174.021021 8.025404 -0.000005 -0.000004 -2.275951 -22.165422 6.710617 1.301395 -0.000004 0.000004 -0.457993 79.914463 -8.793746 5.644914 25.464839 7.355618 -0.002834 
58.823204 -4.799951 92.180801 -7.033848 -0.326645 -3.610293 -0.034103 0.201908 -0.045735 3.923426 0.400671 -0.092644 5.568526 0.399487 -0.097410 14.696060 9.960023 -1.841394 -13.765416 -14.573959 -2.394532 -14.818982 -71.074573 -17.814113 -26.451951 -102.140896 -3.530415 -0.000001 -0.000000 0.000007 19.957586 -5.783683 -0.423781 0.000005 -0.000005 -3.000003 -5.000267 -7.999449 0.000091 -5.289854 69.498001 7.154721 23.706087 101.080625 -39.608807 0.000000 -0.000004 -0.000003 20.540162 6.033138 0.271234 0.000006 -0.000019 3.000021 -5.000298 7.999338 -0.000101 -15.170641 -176.335923 -3.967855 -179.999991 0.000005 -0.632006 171.513536 2.173960 -0.432704 -0.000003 0.000001 0.462630 68.701465 5.062132 6.843956 25.456959 -7.355617 0.000002 -0.165596 -174.024027 8.014189 -0.000005 -0.000003 -2.276009 -22.174991 6.723138 1.303336 -0.000005 0.000004 -0.455946 79.910365 -8.793633 5.640908 25.464835 7.355618 -0.002834 
58.820404 -4.791421 92.178497 -7.047568 -0.329135 -3.603940 -0.032696 0.202542 -0.045785 3.925437 0.401555 -0.094221 5.570537 0.400345 -0.098992 14.743865 9.951972 -1.840384 -13.775053 -14.553007 -2.389460 -14.786671 -71.057996 -17.777983 -26.562428 -102.246409 -3.955191 -0.000001 -0.000000 0.000008 20.169653 -5.931735 -0.389780 0.000004 -0.000005 -3.000003 -5.000271 -7.999448 0.000090 -5.220221 69.516559 7.078778 22.953797 101.058468 -38.682964 0.000000 -0.000006 -0.000004 20.690052 6.094437 0.258224 0.000004 -0.000021 3.000020 -5.000297 7.999340 -0.000100 -15.158483 -176.326060 -3.955587 -179.999991 0.000006 -0.632006 171.519929 2.162121 -0.431711 -0.000003 0.000001 0.460791 68.695577 5.067468 6.830532 25.456960 -7.355617 0.000001 -0.165867 -174.027032 8.003060 -0.000004 -0.000003 -2.276060 -22.184565 6.735577 1.305294 -0.000005 0.000004 -0.453916 79.906260 -8.793519 5.636901 25.464832 7.355619 -0.002835 
